<?xml version="1.0" standalone="no"?><!DOCTYPE svg PUBLIC "-//W3C//DTD SVG 1.1//EN" "http://www.w3.org/Graphics/SVG/1.1/DTD/svg11.dtd"><svg t="1604978429568" class="icon" viewBox="0 0 1024 1024" version="1.1" xmlns="http://www.w3.org/2000/svg" p-id="12056" xmlns:xlink="http://www.w3.org/1999/xlink" width="200" height="200"><defs><style type="text/css"></style></defs><path d="M512 512m-512 0a512 512 0 1 0 1024 0 512 512 0 1 0-1024 0Z" fill="#EDD87E" p-id="12057"></path><path d="M825.568 768c-29.664-146.048-158.752-256-313.568-256s-283.904 109.952-313.568 256h627.136z" fill="#FFFFFF" p-id="12058"></path><path d="M640 538.816a315.008 315.008 0 0 0-32-12.128V768h32v-229.184zM384 538.816V768h32v-241.312a307.616 307.616 0 0 0-32 12.128z" fill="#EAEAEA" p-id="12059"></path><path d="M512 544c143.264 0 264.32 94.208 305.12 224h8.448c-29.664-146.048-158.752-256-313.568-256s-283.904 109.952-313.568 256h8.448c40.8-129.792 161.856-224 305.12-224z" fill="" p-id="12060"></path><path d="M512 960c-193.216 0-363.744-95.424-468.256-241.408C123.2 898.368 302.784 1024 512 1024s388.8-125.632 468.256-305.408C875.744 864.576 705.216 960 512 960z" fill="" p-id="12061"></path><path d="M439.968 258.144l-83.136-48a16 16 0 1 0-16 27.712l83.136 48a16 16 0 1 0 16-27.712zM667.168 210.112l-83.168 48a16 16 0 0 0 16 27.744l83.168-48a16.096 16.096 0 0 0 5.856-21.888 16.064 16.064 0 0 0-21.856-5.856z" fill="#E29460" p-id="12062"></path><path d="M576 352a96 96 0 1 0 192 0c0-10.944-2.24-21.28-5.632-31.072L576 352z" fill="#FFFFFF" p-id="12063"></path><path d="M608.768 346.528c-0.16 1.856-0.768 3.552-0.768 5.472a64 64 0 0 0 128 0c0-9.248-2.56-17.76-6.144-25.664l-121.088 20.192z" fill="#469FCC" p-id="12064"></path><path d="M448 352a96 96 0 1 1-192 0c0-10.944 2.24-21.28 5.632-31.072L448 352z" fill="#FFFFFF" p-id="12065"></path><path d="M415.232 346.528c0.16 1.856 0.768 3.552 0.768 5.472a64 64 0 0 1-128 0c0-9.248 2.56-17.76 6.144-25.664l121.088 20.192z" fill="#469FCC" p-id="12066"></path></svg>