<?xml version="1.0" standalone="no"?><!DOCTYPE svg PUBLIC "-//W3C//DTD SVG 1.1//EN" "http://www.w3.org/Graphics/SVG/1.1/DTD/svg11.dtd"><svg t="1604978457398" class="icon" viewBox="0 0 1024 1024" version="1.1" xmlns="http://www.w3.org/2000/svg" p-id="12194" xmlns:xlink="http://www.w3.org/1999/xlink" width="200" height="200"><defs><style type="text/css"></style></defs><path d="M512 512m-512 0a512 512 0 1 0 1024 0 512 512 0 1 0-1024 0Z" fill="#EDD87E" p-id="12195"></path><path d="M672 352m-96 0a96 96 0 1 0 192 0 96 96 0 1 0-192 0Z" fill="#FFFFFF" p-id="12196"></path><path d="M352 352m-96 0a96 96 0 1 0 192 0 96 96 0 1 0-192 0Z" fill="#FFFFFF" p-id="12197"></path><path d="M672 352m-64 0a64 64 0 1 0 128 0 64 64 0 1 0-128 0Z" fill="#469FCC" p-id="12198"></path><path d="M352 352m-64 0a64 64 0 1 0 128 0 64 64 0 1 0-128 0Z" fill="#469FCC" p-id="12199"></path><path d="M726.432 651.232a255.232 255.232 0 0 1-428.864 0s-26.432-57.216-57.504-34.208 0 62.976 0 62.976C296.416 771.136 396.96 832 512 832s215.584-60.864 271.936-152.032c0 0 36.992-48.96 0.064-66.976s-57.568 38.24-57.568 38.24z" fill="#E29460" p-id="12200"></path><path d="M512 960c-193.216 0-363.744-95.424-468.256-241.408C123.2 898.368 302.784 1024 512 1024s388.8-125.632 468.256-305.408C875.744 864.576 705.216 960 512 960z" fill="" p-id="12201"></path></svg>