<?xml version="1.0" standalone="no"?><!DOCTYPE svg PUBLIC "-//W3C//DTD SVG 1.1//EN" "http://www.w3.org/Graphics/SVG/1.1/DTD/svg11.dtd"><svg t="1604978546238" class="icon" viewBox="0 0 1024 1024" version="1.1" xmlns="http://www.w3.org/2000/svg" p-id="15156" width="200" height="200" xmlns:xlink="http://www.w3.org/1999/xlink"><defs><style type="text/css"></style></defs><path d="M298.666667 563.2l98.133333-96c4.266667-4.266667 10.666667-6.4 17.066667-6.4 6.4 0 10.666667 4.266667 14.933333 8.533333l98.133333 125.866667 85.333334-81.066667c4.266667-4.266667 10.666667-6.4 17.066666-6.4 6.4 0 10.666667 4.266667 14.933334 8.533334l81.066666 98.133333V298.666667H298.666667v264.533333z m313.6-226.133333c40.533333 0 74.666667 34.133333 74.666666 74.666666s-34.133333 74.666667-74.666666 74.666667-74.666667-34.133333-74.666667-74.666667c2.133333-42.666667 34.133333-74.666667 74.666667-74.666666z" fill="#0084ff" p-id="15157"></path><path d="M627.2 561.066667L554.666667 629.333333l21.333333 27.733334c6.4 8.533333 6.4 23.466667-4.266667 29.866666-4.266667 2.133333-8.533333 4.266667-12.8 4.266667-6.4 0-12.8-2.133333-17.066666-8.533333l-132.266667-168.533334-106.666667 104.533334c-2.133333 2.133333-2.133333 2.133333-4.266666 2.133333V725.333333h426.666666v-53.333333c-6.4 0-10.666667-2.133333-14.933333-6.4l-83.2-104.533333z" fill="#0084ff" p-id="15158"></path><path d="M612.266667 411.733333m-32 0a32 32 0 1 0 64 0 32 32 0 1 0-64 0Z" fill="#0084ff" p-id="15159"></path><path d="M512 0C228.266667 0 0 228.266667 0 512s228.266667 512 512 512 512-228.266667 512-512S795.733333 0 512 0z m256 725.333333c0 23.466667-19.2 42.666667-42.666667 42.666667H298.666667c-23.466667 0-42.666667-19.2-42.666667-42.666667V298.666667c0-23.466667 19.2-42.666667 42.666667-42.666667h426.666666c23.466667 0 42.666667 19.2 42.666667 42.666667v426.666666z" fill="#0084ff" p-id="15160"></path></svg>