<?xml version="1.0" standalone="no"?><!DOCTYPE svg PUBLIC "-//W3C//DTD SVG 1.1//EN" "http://www.w3.org/Graphics/SVG/1.1/DTD/svg11.dtd"><svg t="1604976244832" class="icon" viewBox="0 0 1024 1024" version="1.1" xmlns="http://www.w3.org/2000/svg" p-id="8832" xmlns:xlink="http://www.w3.org/1999/xlink" width="200" height="200"><defs><style type="text/css"></style></defs><path d="M472.190791 877.838406c1.609916-8.983726 2.498634-18.214477 2.498635-27.663858v-102.407098c0-86.00981-69.726096-155.733067-155.733067-155.733067-86.01265 0-155.735907 69.723257-155.735907 155.733067v102.407098c0 86.00981 69.723257 155.733067 155.735907 155.733068h231.674516a24.631424 24.631424 0 0 0 24.631424-24.631425c0-57.005776-46.114001-103.233351-103.071508-103.437785zM807.249145 878.284185v-191.290338c0-47.474053-38.487488-85.958702-85.958701-85.958702-47.476893 0-85.961541 38.484648-85.961542 85.958702v232.955067c0 47.474053 38.484648 85.961541 85.961542 85.961541h155.244697a24.631424 24.631424 0 0 0 24.631424-24.631424c-0.002839-53.919394-41.255861-98.179295-93.91742-102.994846z" fill="#C8C9C9" p-id="8833"></path><path d="M117.012752 491.586441m-88.976938 0a88.976939 88.976939 0 1 0 177.953877 0 88.976939 88.976939 0 1 0-177.953877 0Z" fill="#E8E8E8" p-id="8834"></path><path d="M878.281346 18.089545c-38.856604 0-70.356434 31.499829-70.356434 70.356434v271.607237h140.715707V88.443139c0-38.853765-31.499829-70.353594-70.359273-70.353594z" fill="#DADBDC" p-id="8835"></path><path d="M931.664102 91.611862c0.090859-1.044883 0.159004-2.098285 0.159004-3.165883 0-19.469473-15.786826-35.256299-35.256299-35.256299-19.472312 0-35.259138 15.783987-35.259139 35.256299v194.808302c0 19.472312 15.786826 35.259138 35.256299 35.259138 19.472312 0 35.259138-15.786826 35.259139-35.259138 0-1.064759-0.065305-2.115321-0.159004-3.157366V91.611862z" fill="#FF9C9F" p-id="8836"></path><path d="M759.332152 258.790378c-103.170885 0-192.545334 59.038756-236.203291 145.170658h-195.026933c-149.770417 0-271.184173 121.413756-271.184172 271.184173s121.413756 271.184173 271.184172 271.184173h321.46919c127.8449 0 235.007922-88.474372 263.651358-207.528622 67.065619-48.013531 110.777524-126.572868 110.777524-215.342534 0-146.172951-118.497736-264.667848-264.667848-264.667848z" fill="#DADBDC" p-id="8837"></path><path d="M639.778175 18.089545c-38.853765 0-70.356434 31.499829-70.356433 70.356434v271.607237h140.715706V88.443139c-0.002839-38.853765-31.499829-70.353594-70.359273-70.353594z" fill="#DADBDC" p-id="8838"></path><path d="M693.160931 91.611862c0.090859-1.044883 0.159004-2.098285 0.159004-3.165883 0-19.469473-15.786826-35.256299-35.256299-35.256299-19.472312 0-35.259138 15.783987-35.259139 35.256299v194.808302c0 19.472312 15.786826 35.259138 35.2563 35.259138 19.472312 0 35.259138-15.786826 35.259138-35.259138 0-1.064759-0.065305-2.115321-0.159004-3.157366V91.611862z" fill="#FF9C9F" p-id="8839"></path><path d="M768.247734 445.901183m-18.274103 0a18.274103 18.274103 0 1 0 36.548206 0 18.274103 18.274103 0 1 0-36.548206 0Z" fill="#333E48" p-id="8840"></path><path d="M929.28756 445.901183m-18.274104 0a18.274103 18.274103 0 1 0 36.548207 0 18.274103 18.274103 0 1 0-36.548207 0Z" fill="#333E48" p-id="8841"></path><path d="M881.015647 518.120235c-10.840666 11.241015-28.901818 11.561863-40.137154 0.715518l-12.527245-12.098502c-11.235337-10.846345-7.649228-19.722176 7.967237-19.722175h46.301399c15.616465 0 19.523421 9.196678 8.685594 20.437693l-10.289831 10.667466z" fill="#FF9C9F" p-id="8842"></path><path d="M308.9675 877.838406c1.609916-8.983726 2.498634-18.214477 2.498634-27.663858v-102.407098c0-86.00981-69.726096-155.733067-155.733067-155.733067C69.723257 592.037222 0 661.760479 0 747.770289v102.407099c0 86.00981 69.723257 155.733067 155.735907 155.733067h231.674516a24.631424 24.631424 0 0 0 24.631424-24.631424c-0.002839-57.008615-46.114001-103.236191-103.074347-103.440625zM644.023014 878.284185v-191.290338c0-47.474053-38.484648-85.958702-85.958701-85.958702s-85.958702 38.484648-85.958702 85.958702v232.955067c0 47.474053 38.487488 85.961541 85.958702 85.961541h155.247537a24.631424 24.631424 0 0 0 24.631424-24.631424c-0.002839-53.919394-41.2587-98.179295-93.92026-102.994846z" fill="#E8E8E8" p-id="8843"></path></svg>